# xmcd
#
# Track frame offsets:
#	150
#	14119
#	31108
#	42683
#	65896
#	79709
#	99011
#	114298
#	125029
#	137612
#	153936
#	171050
#	191448
#
# Disc length: 2769 seconds
# Revision: 0
# Processed by: cddbd v1.5.2PL0 Copyright (c) Steve Scherf et al.
# Submitted via: dBpowerAMP V12.0
#
DISCID=a80acf0d
DTITLE=Locust Ridge - Healed
DYEAR=2013
DGENRE=Country
TTITLE0=Still Walking on the Water
TTITLE1=Healed
TTITLE2=Silver and Gold
TTITLE3=Restoring the Love
TTITLE4=Canaan's Land is Just in Sight
TTITLE5=Looking Down in the Valley
TTITLE6=Just a Few Things
TTITLE7=I'm Glad I'm Saved
TTITLE8=Oh I Want to See Him
TTITLE9=What Will You Do With My God
TTITLE10=Mercy Found Me
TTITLE11=What Heaven Means to Me
TTITLE12=Nails
EXTD=
EXTT0=
EXTT1=
EXTT2=
EXTT3=
EXTT4=
EXTT5=
EXTT6=
EXTT7=
EXTT8=
EXTT9=
EXTT10=
EXTT11=
EXTT12=
PLAYORDER=
